<svg xmlns="http://www.w3.org/2000/svg" width="26" height="27" viewBox="0 0 26 27">
  <g id="Notes" transform="translate(-0.346 -0.212)">
    <g id="Groupe_34441" data-name="Groupe 34441" transform="translate(0.345 0.212)">
      <path id="Tracé_55924" data-name="Tracé 55924" d="M3.744,3.386a.621.621,0,0,1,0-1.242H9.524a.621.621,0,0,1,0,1.242H3.744Zm0,16.114a.621.621,0,0,1,0-1.242H14.651a.621.621,0,0,1,0,1.242H3.744Zm0-3.223a.621.621,0,0,1,0-1.242H16.578a.621.621,0,0,1,0,1.242H3.744Zm0-3.223a.621.621,0,0,1,0-1.242H17.719a.621.621,0,0,1,0,1.242Zm0-3.223a.621.621,0,0,1,0-1.242H17.719a.621.621,0,0,1,0,1.242Zm0-3.222a.621.621,0,0,1,0-1.242H17.719a.621.621,0,0,1,0,1.242Zm17.374,5.975V.212H.345v27H21.118V20.53l-1.508,2.2a.613.613,0,0,1-.247.21l-2.9,1.361a.619.619,0,0,1-.874-.636l.223-3.176a.616.616,0,0,1,.128-.339l5.183-7.567Zm5.227-1.87L24.682,9.565,17.028,20.741l-.14,1.991,1.8-.844,7.654-11.174Z" transform="translate(-0.345 -0.212)" fill="#fff"/>
    </g>
  </g>
</svg>
